<svg width="21" height="20" viewBox="0 0 21 20" fill="none" xmlns="http://www.w3.org/2000/svg">
<path d="M10.969 0C5.44899 0 0.968994 4.48 0.968994 10C0.968994 15.52 5.44899 20 10.969 20C16.489 20 20.969 15.52 20.969 10C20.969 4.48 16.499 0 10.969 0ZM13.969 12.23L11.069 13.9C10.7199 14.1034 10.3231 14.2106 9.91899 14.2106C9.51493 14.2106 9.1181 14.1034 8.76899 13.9C8.41711 13.6986 8.12515 13.4073 7.92305 13.0558C7.72096 12.7043 7.61602 12.3054 7.61899 11.9V8.55C7.61899 7.72 8.04899 6.97 8.76899 6.55C9.48899 6.13 10.349 6.13 11.079 6.55L13.979 8.22C14.699 8.64 15.129 9.38 15.129 10.22C15.129 11.06 14.699 11.81 13.969 12.23Z" fill="#143F6B"/>
</svg>
